# xmcd CD database file
#
# Track frame offsets:
#	150
#	25105
#	45880
#	64085
#	89587
#	105587
#	129380
#	152820
#	174080
#	191137
#
# Disc length: 2686 seconds
#
# Revision: 0
# Processed by: cddbd v1.5PL3 Copyright (c) Steve Scherf et al.
# Submitted via: CDex 1.50
#
DISCID=760a7c0a
DTITLE=SUZY K - KINK
DYEAR=1900
DGENRE=Jazz
TTITLE0=I just want to make love to you
TTITLE1=Love Rap
TTITLE2=Cloudy Afternoon
TTITLE3=Missin' You
TTITLE4=Let You Know
TTITLE5=Girlfriend
TTITLE6=What's my sex gotta do with it
TTITLE7=Somewhere down the line
TTITLE8=Absence makes a heart grow fonder
TTITLE9=Cloudy(Reprise)
EXTD=
EXTT0=
EXTT1=
EXTT2=
EXTT3=
EXTT4=
EXTT5=
EXTT6=
EXTT7=
EXTT8=
EXTT9=
PLAYORDER=
